<svg width="100" height="100" viewBox="0 0 100 100" fill="none" xmlns="http://www.w3.org/2000/svg">
<g clip-path="url(#clip0_1_20)">
<rect width="100" height="100" rx="20" fill="black"/>
<g filter="url(#filter0_d_1_20)">
<circle cx="50" cy="50" r="38" stroke="url(#paint0_linear_1_20)" stroke-width="2"/>
</g>
<path d="M23.0351 47.542C22.9991 47.61 22.9471 47.644 22.8791 47.644C22.8271 47.644 22.7591 47.608 22.6751 47.536C22.5951 47.46 22.4851 47.378 22.3451 47.29C22.2051 47.198 22.0291 47.114 21.8171 47.038C21.6091 46.962 21.3511 46.924 21.0431 46.924C20.7351 46.924 20.4631 46.968 20.2271 47.056C19.9951 47.144 19.7991 47.264 19.6391 47.416C19.4831 47.568 19.3631 47.744 19.2791 47.944C19.1991 48.144 19.1591 48.354 19.1591 48.574C19.1591 48.862 19.2191 49.1 19.3391 49.288C19.4631 49.476 19.6251 49.636 19.8251 49.768C20.0251 49.9 20.2511 50.012 20.5031 50.104C20.7591 50.192 21.0211 50.28 21.2891 50.368C21.5571 50.456 21.8171 50.554 22.0691 50.662C22.3251 50.766 22.5531 50.898 22.7531 51.058C22.9531 51.218 23.1131 51.416 23.2331 51.652C23.3571 51.884 23.4191 52.174 23.4191 52.522C23.4191 52.878 23.3571 53.214 23.2331 53.53C23.1131 53.842 22.9371 54.114 22.7051 54.346C22.4731 54.578 22.1891 54.762 21.8531 54.898C21.5171 55.03 21.1331 55.096 20.7011 55.096C20.1411 55.096 19.6591 54.998 19.2551 54.802C18.8511 54.602 18.4971 54.33 18.1931 53.986L18.3611 53.722C18.4091 53.662 18.4651 53.632 18.5291 53.632C18.5651 53.632 18.6111 53.656 18.6671 53.704C18.7231 53.752 18.7911 53.812 18.8711 53.884C18.9511 53.952 19.0471 54.028 19.1591 54.112C19.2711 54.192 19.4011 54.268 19.5491 54.34C19.6971 54.408 19.8671 54.466 20.0591 54.514C20.2511 54.562 20.4691 54.586 20.7131 54.586C21.0491 54.586 21.3491 54.536 21.6131 54.436C21.8771 54.332 22.0991 54.192 22.2791 54.016C22.4631 53.84 22.6031 53.632 22.6991 53.392C22.7951 53.148 22.8431 52.888 22.8431 52.612C22.8431 52.312 22.7811 52.066 22.6571 51.874C22.5371 51.678 22.3771 51.516 22.1771 51.388C21.9771 51.256 21.7491 51.146 21.4931 51.058C21.2411 50.97 20.9811 50.884 20.7131 50.8C20.4451 50.716 20.1831 50.622 19.9271 50.518C19.6751 50.414 19.4491 50.282 19.2491 50.122C19.0491 49.958 18.8871 49.756 18.7631 49.516C18.6431 49.272 18.5831 48.968 18.5831 48.604C18.5831 48.32 18.6371 48.046 18.7451 47.782C18.8531 47.518 19.0111 47.286 19.2191 47.086C19.4271 46.882 19.6831 46.72 19.9871 46.6C20.2951 46.476 20.6451 46.414 21.0371 46.414C21.4771 46.414 21.8711 46.484 22.2191 46.624C22.5711 46.764 22.8911 46.978 23.1791 47.266L23.0351 47.542ZM28.0564 51.502V55H27.4444V51.502L24.3004 46.51H24.8404C24.8964 46.51 24.9424 46.524 24.9784 46.552C25.0144 46.576 25.0444 46.612 25.0684 46.66L27.4984 50.56C27.5504 50.652 27.5984 50.742 27.6424 50.83C27.6864 50.914 27.7244 50.998 27.7564 51.082C27.7884 50.998 27.8244 50.914 27.8644 50.83C27.9044 50.742 27.9504 50.652 28.0024 50.56L30.4324 46.66C30.4524 46.616 30.4804 46.58 30.5164 46.552C30.5564 46.524 30.6044 46.51 30.6604 46.51H31.2004L28.0564 51.502ZM39.3631 46.51V55H39.0751C39.0231 55 38.9791 54.992 38.9431 54.976C38.9111 54.956 38.8791 54.924 38.8471 54.88L33.3331 47.512C33.3451 47.632 33.3511 47.746 33.3511 47.854V55H32.8111V46.51H33.1171C33.1731 46.51 33.2151 46.518 33.2431 46.534C33.2751 46.546 33.3091 46.576 33.3451 46.624L38.8471 53.974C38.8351 53.854 38.8291 53.74 38.8291 53.632V46.51H39.3631ZM49.2617 50.752C49.2617 51.408 49.1637 51.998 48.9677 52.522C48.7717 53.046 48.4957 53.492 48.1397 53.86C47.7837 54.228 47.3557 54.51 46.8557 54.706C46.3597 54.902 45.8117 55 45.2117 55H42.1097V46.51H45.2117C45.8117 46.51 46.3597 46.608 46.8557 46.804C47.3557 47 47.7837 47.282 48.1397 47.65C48.4957 48.018 48.7717 48.464 48.9677 48.988C49.1637 49.512 49.2617 50.1 49.2617 50.752ZM48.6257 50.752C48.6257 50.16 48.5437 49.632 48.3797 49.168C48.2157 48.704 47.9837 48.312 47.6837 47.992C47.3837 47.672 47.0237 47.428 46.6037 47.26C46.1837 47.092 45.7197 47.008 45.2117 47.008H42.7277V54.502H45.2117C45.7197 54.502 46.1837 54.418 46.6037 54.25C47.0237 54.082 47.3837 53.838 47.6837 53.518C47.9837 53.198 48.2157 52.806 48.3797 52.342C48.5437 51.878 48.6257 51.348 48.6257 50.752ZM52.0849 55H51.4669V46.51H52.0849V55ZM60.9618 53.572C61.0018 53.572 61.0358 53.586 61.0638 53.614L61.3038 53.872C61.1278 54.06 60.9358 54.23 60.7278 54.382C60.5238 54.53 60.2978 54.658 60.0498 54.766C59.8058 54.87 59.5358 54.95 59.2398 55.006C58.9478 55.066 58.6258 55.096 58.2738 55.096C57.6858 55.096 57.1458 54.994 56.6538 54.79C56.1658 54.582 55.7458 54.29 55.3938 53.914C55.0418 53.534 54.7678 53.076 54.5718 52.54C54.3798 52.004 54.2838 51.408 54.2838 50.752C54.2838 50.108 54.3838 49.52 54.5838 48.988C54.7838 48.456 55.0638 48 55.4238 47.62C55.7838 47.236 56.2158 46.94 56.7198 46.732C57.2238 46.52 57.7798 46.414 58.3878 46.414C58.9678 46.414 59.4818 46.504 59.9298 46.684C60.3778 46.864 60.7858 47.118 61.1538 47.446L60.9678 47.716C60.9358 47.764 60.8858 47.788 60.8178 47.788C60.7698 47.788 60.6918 47.744 60.5838 47.656C60.4758 47.568 60.3258 47.472 60.1338 47.368C59.9418 47.26 59.7018 47.162 59.4138 47.074C59.1298 46.986 58.7878 46.942 58.3878 46.942C57.8758 46.942 57.4058 47.03 56.9778 47.206C56.5538 47.382 56.1878 47.634 55.8798 47.962C55.5758 48.29 55.3378 48.69 55.1658 49.162C54.9938 49.634 54.9078 50.164 54.9078 50.752C54.9078 51.352 54.9938 51.888 55.1658 52.36C55.3418 52.832 55.5818 53.232 55.8858 53.56C56.1898 53.884 56.5478 54.134 56.9598 54.31C57.3758 54.482 57.8238 54.568 58.3038 54.568C58.6078 54.568 58.8778 54.548 59.1138 54.508C59.3538 54.468 59.5738 54.408 59.7738 54.328C59.9738 54.248 60.1598 54.15 60.3318 54.034C60.5038 53.918 60.6738 53.782 60.8418 53.626C60.8618 53.61 60.8818 53.598 60.9018 53.59C60.9218 53.578 60.9418 53.572 60.9618 53.572ZM67.7632 51.916L66.0352 47.626C65.9752 47.486 65.9172 47.318 65.8612 47.122C65.8372 47.218 65.8112 47.31 65.7832 47.398C65.7552 47.482 65.7252 47.56 65.6932 47.632L63.9652 51.916H67.7632ZM69.6412 55H69.1672C69.1112 55 69.0652 54.986 69.0292 54.958C68.9932 54.926 68.9652 54.886 68.9452 54.838L67.9492 52.372H63.7792L62.7832 54.838C62.7672 54.882 62.7392 54.92 62.6992 54.952C62.6592 54.984 62.6112 55 62.5552 55H62.0872L65.5612 46.51H66.1672L69.6412 55ZM75.9647 47.032H72.9827V55H72.3647V47.032H69.3647V46.51H75.9647V47.032ZM82.7339 54.49L82.7219 55H77.6339V46.51H82.7219V47.02H78.2519V50.452H81.9719V50.95H78.2519V54.49H82.7339Z" fill="#BBBFDC"/>
</g>
<defs>
<filter id="filter0_d_1_20" x="-11" y="-11" width="122" height="122" filterUnits="userSpaceOnUse" color-interpolation-filters="sRGB">
<feFlood flood-opacity="0" result="BackgroundImageFix"/>
<feColorMatrix in="SourceAlpha" type="matrix" values="0 0 0 0 0 0 0 0 0 0 0 0 0 0 0 0 0 0 127 0" result="hardAlpha"/>
<feMorphology radius="1" operator="dilate" in="SourceAlpha" result="effect1_dropShadow_1_20"/>
<feOffset/>
<feGaussianBlur stdDeviation="10.5"/>
<feColorMatrix type="matrix" values="0 0 0 0 0.454902 0 0 0 0 0.490196 0 0 0 0 0.752941 0 0 0 0.5 0"/>
<feBlend mode="normal" in2="BackgroundImageFix" result="effect1_dropShadow_1_20"/>
<feBlend mode="normal" in="SourceGraphic" in2="effect1_dropShadow_1_20" result="shape"/>
</filter>
<linearGradient id="paint0_linear_1_20" x1="50" y1="11" x2="50" y2="89" gradientUnits="userSpaceOnUse">
<stop stop-color="#747DC0"/>
<stop offset="1" stop-color="#CBCAED"/>
</linearGradient>
<clipPath id="clip0_1_20">
<rect width="100" height="100" rx="20" fill="white"/>
</clipPath>
</defs>
</svg>
